<svg id="svg" xmlns="http://www.w3.org/2000/svg" xmlns:xlink="http://www.w3.org/1999/xlink" width="400" height="176.171875" viewBox="0, 0, 400,176.171875" version="1.1"><g id="svgg"><path id="path0" d="M76.886 24.262 C 65.467 24.906,63.367 25.771,71.967 26.288 C 77.033 26.593,307.295 26.297,312.695 25.979 C 321.374 25.468,325.352 25.129,323.633 25.049 C 305.573 24.205,90.076 23.517,76.886 24.262 M193.921 42.214 C 192.660 43.608,193.763 44.886,196.987 45.766 C 200.862 46.823,204.192 48.447,206.733 50.518 C 209.181 52.513,209.447 52.612,210.133 51.786 C 211.282 50.401,207.375 45.879,203.347 43.933 C 198.447 41.565,195.067 40.948,193.921 42.214 M241.356 47.239 C 228.563 49.873,217.952 54.411,218.618 56.961 C 218.965 58.285,219.554 58.213,226.012 56.046 C 237.375 52.235,250.551 49.825,252.016 51.291 C 252.530 51.804,252.670 53.805,252.906 63.939 C 253.059 70.559,253.594 84.854,254.094 95.703 C 255.219 120.108,255.242 119.869,251.342 124.157 C 243.253 133.049,231.936 135.372,221.776 130.223 C 218.242 128.432,217.509 130.251,220.737 132.802 C 226.117 137.055,239.192 137.419,245.867 133.503 C 258.875 125.870,259.615 124.042,258.594 102.047 C 258.188 93.294,257.661 80.156,257.423 72.852 C 256.859 55.562,256.483 50.516,255.627 48.721 C 254.248 45.829,250.227 45.412,241.356 47.239 M210.417 65.495 C 209.800 66.111,210.237 67.577,211.306 68.476 C 212.773 69.710,215.184 70.126,225.391 70.905 C 237.536 71.832,238.212 72.139,235.743 75.612 C 232.566 80.081,236.088 79.913,239.583 75.430 C 243.637 70.229,239.790 67.999,225.000 66.979 C 220.381 66.661,215.283 66.138,213.672 65.818 C 212.061 65.497,210.728 65.235,210.710 65.235 C 210.692 65.235,210.560 65.352,210.417 65.495 M190.897 91.091 C 190.987 112.170,191.099 116.492,191.599 118.213 C 192.335 120.745,193.924 122.743,195.071 122.579 C 196.042 122.440,196.046 122.360,195.381 115.115 C 195.099 112.040,194.922 102.214,194.922 89.601 C 194.922 68.223,194.911 68.081,193.216 66.708 C 190.648 64.628,190.779 63.256,190.897 91.091 M144.221 67.393 C 139.548 68.408,137.951 70.043,139.814 71.906 C 141.088 73.180,142.083 73.323,143.732 72.470 C 149.714 69.377,161.507 71.998,164.077 76.993 C 169.019 86.599,160.765 100.132,145.091 108.118 C 142.880 109.244,142.358 109.949,142.882 111.098 C 143.774 113.057,145.525 112.676,151.867 109.141 C 172.404 97.693,172.793 97.443,172.018 96.211 C 171.411 95.246,171.293 95.276,163.728 98.338 C 163.437 98.456,163.845 97.706,164.635 96.671 C 177.191 80.222,165.087 62.862,144.221 67.393 M283.523 68.652 C 281.849 70.619,277.131 84.028,275.565 91.271 C 272.791 104.102,275.740 109.270,280.854 100.538 C 285.508 92.592,290.967 86.336,294.617 84.766 C 297.113 83.692,297.385 83.949,298.064 88.023 C 299.899 99.038,300.944 101.705,305.073 105.908 C 317.116 118.168,336.477 108.551,331.675 92.693 C 330.470 88.713,326.470 83.332,324.176 82.603 C 322.872 82.190,323.335 81.883,329.346 79.179 C 338.453 75.081,340.580 74.752,345.661 76.653 C 347.460 77.326,354.847 81.939,355.469 82.778 C 356.651 84.371,359.760 84.316,360.082 82.695 C 360.362 81.287,355.431 77.032,351.074 74.922 C 342.917 70.971,339.562 70.958,330.541 74.846 C 322.640 78.252,321.467 78.559,315.095 78.889 C 308.366 79.239,307.424 79.726,309.489 81.790 C 310.226 82.528,310.968 82.730,313.712 82.941 C 323.305 83.678,328.157 88.322,328.271 96.875 C 328.363 103.789,324.423 107.384,317.234 106.943 C 309.227 106.453,304.949 101.488,302.566 89.920 C 301.194 83.257,300.913 82.499,299.364 81.280 C 295.938 78.585,288.128 83.652,281.594 92.810 L 279.492 95.755 279.374 94.410 C 279.210 92.551,280.440 87.935,283.649 78.371 C 286.099 71.067,286.335 70.100,285.918 69.093 C 285.391 67.821,284.389 67.636,283.523 68.652 M125.317 73.730 C 123.572 75.604,124.414 80.380,128.396 91.211 C 132.459 102.262,135.490 107.422,137.916 107.422 C 139.337 107.422,139.116 106.470,135.730 98.025 C 129.257 81.880,128.119 77.669,129.688 75.675 C 131.674 73.150,127.562 71.321,125.317 73.730 M223.066 78.266 C 220.685 79.052,220.121 80.532,219.455 87.733 L 219.018 92.457 212.732 94.534 C 204.210 97.350,204.613 97.178,204.761 97.944 C 205.175 100.096,210.072 100.054,215.364 97.852 C 219.553 96.110,219.244 95.766,218.730 101.603 C 218.201 107.619,217.806 109.170,216.335 111.027 C 210.973 117.798,224.736 115.205,239.752 106.616 C 245.004 103.612,245.308 103.344,244.440 102.475 C 243.277 101.313,242.089 101.640,235.469 104.947 C 226.758 109.297,220.152 111.547,221.033 109.863 C 221.779 108.438,222.627 103.543,222.886 99.168 L 223.156 94.624 226.129 93.339 C 241.187 86.826,241.996 84.986,231.836 80.375 C 226.593 77.996,225.027 77.619,223.066 78.266 M95.313 80.127 C 74.703 85.215,61.360 87.488,51.147 87.650 C 45.301 87.742,43.298 88.369,43.035 90.189 C 42.443 94.275,48.702 93.857,83.789 87.461 C 100.898 84.343,101.563 84.158,101.563 82.502 C 101.563 80.027,99.261 79.152,95.313 80.127 M230.762 82.853 C 232.534 83.711,233.984 84.549,233.984 84.716 C 233.984 85.663,231.616 87.104,226.531 89.248 L 223.438 90.553 223.440 87.757 C 223.445 80.563,224.531 79.837,230.762 82.853 M100.666 151.025 C 100.622 151.067,96.719 151.218,91.992 151.360 C 87.266 151.501,81.201 151.737,78.516 151.883 L 73.633 152.148 81.445 152.438 C 108.682 153.448,316.432 153.768,326.754 152.816 C 332.128 152.321,333.393 151.981,332.358 151.314 C 331.937 151.042,100.945 150.754,100.666 151.025 " stroke="none" fill="#000000" fill-rule="evenodd"></path></g></svg>